Coordinates
version=1
nRows=24
nColumns=22
inDegrees=yes

Units are S.I. units (second, meters, Newtons, ...)
If the header above contains a line with 'inDegrees', this indicates whether rotational values are in degrees (yes) or radians (no).

endheader
time	pelvis_tilt	pelvis_list	pelvis_rotation	pelvis_tx	pelvis_ty	pelvis_tz	hip_flexion_r	hip_adduction_r	hip_rotation_r	knee_angle_r	ankle_angle_r	subtalar_angle_r	hip_flexion_l	hip_adduction_l	hip_rotation_l	knee_angle_l	ankle_angle_l	subtalar_angle_l	lumbar_extension	lumbar_bending	lumbar_rotation
      5.89000000	     -8.78810316	      3.84474676	    -48.07387180	      1.13457298	      0.87589650	      0.99804585	     22.88029830	     -3.61328654	      6.33399293	    -30.05135658	     11.54198793	      0.50951481	     11.07585349	     -1.01565021	     -3.33026923	     -6.64123285	      9.31167238	     -1.02804825	      3.46357359	      1.09904543	     10.58758734
      5.90000000	     -8.80912564	      3.72784995	    -47.97399844	      1.13629342	      0.87608666	      0.99904284	     22.98271167	     -3.49702954	      6.35504560	    -29.03209563	     11.59939618	      0.65487538	     10.86558521	     -1.06527070	     -3.26860626	     -6.62754157	      9.42474455	     -0.98815071	      3.36064003	      1.18802315	     10.57511063
      5.91000000	     -8.82875396	      3.61302396	    -47.86277239	      1.13798309	      0.87627524	      1.00002173	     23.07062734	     -3.39778429	      6.34858980	    -28.07058664	     11.64754035	      0.79753394	     10.65813680	     -1.11228133	     -3.19584546	     -6.60950916	      9.52939726	     -0.94295208	      3.26081223	      1.27474275	     10.55770258
      5.92000000	     -8.85070469	      3.49620192	    -47.73617685	      1.13964529	      0.87646606	      1.00099695	     23.13885793	     -3.30993143	      6.30868629	    -27.16620080	     11.67513661	      0.91128018	     10.45256880	     -1.16314922	     -3.10866526	     -6.58771833	      9.63066717	     -0.89526904	      3.16508599	      1.36256462	     10.52737397
      5.93000000	     -8.87592274	      3.37862148	    -47.59446311	      1.14129286	      0.87665521	      1.00196303	     23.19044623	     -3.23350375	      6.23618431	    -26.32374729	     11.68673112	      0.98284679	     10.24941382	     -1.21655503	     -3.00498446	     -6.56039269	      9.72604148	     -0.84756109	      3.07676843	      1.45540337	     10.48415904
      5.94000000	     -8.90488661	      3.25962248	    -47.43694057	      1.14292050	      0.87684489	      1.00293442	     23.22490528	     -3.16463718	      6.13258399	    -25.54288525	     11.69268950	      1.01365302	     10.04807305	     -1.27456077	     -2.88366859	     -6.52705703	      9.81537863	     -0.79974309	      2.99736427	      1.55007149	     10.42732957
      5.95000000	     -8.93105303	      3.13190197	    -47.26279275	      1.14456311	      0.87704727	      1.00390515	     23.23226617	     -3.10525161	      5.99792335	    -24.82424897	     11.70187402	      1.00622081	      9.83329257	     -1.33580058	     -2.74844288	     -6.48091250	      9.90411019	     -0.74258434	      2.91830986	      1.65404328	     10.35056213
      5.96000000	     -8.96469203	      3.01332200	    -47.08078984	      1.14616905	      0.87724082	      1.00490707	     23.22912157	     -3.04973570	      5.85059107	    -24.14852595	     11.73337171	      0.96605091	      9.63177252	     -1.40084345	     -2.59764764	     -6.43245186	      9.98448497	     -0.68315147	      2.86148261	      1.75164174	     10.26879736
      5.97000000	     -9.00218812	      2.89150888	    -46.88651445	      1.14775460	      0.87743825	      1.00592031	     23.20848885	     -2.99310838	      5.69267525	    -23.52393082	     11.77886717	      0.89969367	      9.43197686	     -1.47422394	     -2.43337809	     -6.38141620	     10.06033943	     -0.61553250	      2.81240743	      1.85450672	     10.17834784
      5.98000000	     -9.04086835	      2.76753481	    -46.68623401	      1.14930197	      0.87764573	      1.00696612	     23.16466085	     -2.93261640	      5.53280190	    -22.93528161	     11.82934298	      0.80516810	      9.23005462	     -1.55552255	     -2.26856445	     -6.32343868	     10.13608784	     -0.53075289	      2.76998724	      1.95589300	     10.08041306
      5.99000000	     -9.09450301	      2.64785826	    -46.48399273	      1.15078487	      0.87784066	      1.00801952	     23.11392430	     -2.85965563	      5.38163474	    -22.37555092	     11.87953219	      0.71289193	      9.05157902	     -1.65121773	     -2.08490321	     -6.27632157	     10.20272052	     -0.44301923	      2.74385900	      2.06509980	      9.99310326
      6.00000000	     -9.15377625	      2.53097241	    -46.27329440	      1.15221339	      0.87803321	      1.00908889	     23.04459420	     -2.77965378	      5.24536198	    -21.84032585	     11.91919242	      0.61908003	      8.88511417	     -1.75382788	     -1.90468954	     -6.23055085	     10.27116821	     -0.34517874	      2.72703083	      2.17434246	      9.91365704
      6.01000000	     -9.21873713	      2.41840437	    -46.06602192	      1.15355365	      0.87822297	      1.01020194	     22.96088832	     -2.68692054	      5.13034200	    -21.32849315	     11.94532837	      0.52899070	      8.73308872	     -1.86660570	     -1.72106511	     -6.19335247	     10.33837436	     -0.23933387	      2.71841343	      2.27624311	      9.84341689
      6.02000000	     -9.28873271	      2.30934559	    -45.85305244	      1.15484132	      0.87840554	      1.01132043	     22.86149438	     -2.58694464	      5.04254168	    -20.84154592	     11.95731539	      0.44843165	      8.59659786	     -1.98367740	     -1.53317242	     -6.16473642	     10.40536350	     -0.12951494	      2.71539750	      2.37860686	      9.78869003
      6.03000000	     -9.36131709	      2.21132736	    -45.64138490	      1.15605751	      0.87857295	      1.01246267	     22.75606444	     -2.48270539	      4.99601761	    -20.38765251	     11.96090170	      0.39166063	      8.47978801	     -2.10028030	     -1.34323441	     -6.14789365	     10.46928534	     -0.02951513	      2.72109826	      2.47100633	      9.75176566
      6.04000000	     -9.43190026	      2.11678006	    -45.42767735	      1.15722787	      0.87873572	      1.01361854	     22.63337610	     -2.37646356	      4.97891138	    -19.96312635	     11.95520861	      0.35591747	      8.36995483	     -2.21539273	     -1.15533463	     -6.13570865	     10.53602202	      0.06927307	      2.72677909	      2.55802671	      9.72813028
      6.05000000	     -9.50016592	      2.03014119	    -45.21629909	      1.15834225	      0.87888421	      1.01479630	     22.50074956	     -2.27028762	      4.99632021	    -19.57386097	     11.94443834	      0.34795101	      8.26830644	     -2.32719204	     -0.97206196	     -6.12647970	     10.60230918	      0.16289940	      2.73509945	      2.63482187	      9.71976274
      6.06000000	     -9.56445225	      1.95192704	    -45.00888729	      1.15939720	      0.87901528	      1.01599591	     22.36015376	     -2.16679263	      5.03640902	    -19.22319332	     11.93100576	      0.36619111	      8.17174797	     -2.43349494	     -0.79800035	     -6.11551889	     10.66878422	      0.25296744	      2.74390674	      2.70046638	      9.72534511
      6.07000000	     -9.62272333	      1.87734430	    -44.80394649	      1.16041104	      0.87913191	      1.01722400	     22.20259706	     -2.06772407	      5.08204164	    -18.90458410	     11.91510879	      0.40554532	      8.07016160	     -2.53691404	     -0.63224839	     -6.09734160	     10.73698215	      0.35002986	      2.75114682	      2.75781629	      9.74162139
      6.08000000	     -9.67809991	      1.81548159	    -44.60565818	      1.16134750	      0.87921814	      1.01847471	     22.04343437	     -1.97440438	      5.12745822	    -18.62209321	     11.89517826	      0.45394758	      7.97403769	     -2.63362971	     -0.47473450	     -6.07058035	     10.80013910	      0.44252411	      2.76250423	      2.79988794	      9.77220180
      6.09000000	     -9.73123192	      1.76443079	    -44.41074505	      1.16221366	      0.87927239	      1.01974357	     21.87835507	     -1.88828391	      5.15787860	    -18.36780416	     11.86162038	      0.50477778	      7.88054175	     -2.72506534	     -0.32260015	     -6.03242410	     10.85776262	      0.53271275	      2.77725659	      2.83019252	      9.81352224
      6.10000000	     -9.78037954	      1.72478034	    -44.21864037	      1.16300990	      0.87929455	      1.02103141	     21.70344945	     -1.81229786	      5.16318978	    -18.13406474	     11.80273293	      0.56366688	      7.78668440	     -2.80959409	     -0.17929869	     -5.97875665	     10.91127382	      0.62958379	      2.79514399	      2.84759715	      9.86218429
      6.11000000	     -9.83333073	      1.70376553	    -44.02998153	      1.16370804	      0.87927047	      1.02233021	     21.52893901	     -1.74447667	      5.15093174	    -17.91069447	     11.69554886	      0.63585108	      7.70617514	     -2.88910775	     -0.03853559	     -5.91182238	     10.95461553	      0.72577954	      2.82478405	      2.84996240	      9.91853191
      6.12000000	     -9.88461301	      1.69619934	    -43.84291938	      1.16434237	      0.87920550	      1.02364174	     21.34063775	     -1.68910958	      5.11371397	    -17.68780637	     11.52691937	      0.74855442	      7.62679241	     -2.96147128	      0.09107137	     -5.82699923	     10.99882853	      0.84240719	      2.86241819	      2.84150384	      9.97826953
